<?xml version="1.0" encoding="utf-8"?>
<!-- Generator: Adobe Illustrator 26.3.1, SVG Export Plug-In . SVG Version: 6.00 Build 0)  -->
<svg version="1.1" id="Ebene_1" xmlns="http://www.w3.org/2000/svg" xmlns:xlink="http://www.w3.org/1999/xlink" x="0px" y="0px"
	 viewBox="0 0 2000 552.6" style="enable-background:new 0 0 2000 552.6;" xml:space="preserve">
<style type="text/css">
	.st0{fill:#001D38;}
	.st1{fill:#FF0037;}
	.st2{fill:#9198A9;}
</style>
<g>
	<g>
		<path class="st0" d="M425.1,315.1c-0.6,49.4-41.8,88.7-91.2,88.7H156.3c-6.5,0-9.9-7.6-5.7-12.5l80.6-94
			c15.4,10.9,33.7,16.8,53,16.8c27.4,0,53.1-12.1,70.6-33.1l0.1-0.1l33.8-39.4C411.1,258.1,425.5,284.9,425.1,315.1z"/>
		<path class="st1" d="M435.3,159l-94.3,110l0,0c-13.5,16.4-33.9,26.8-56.8,26.8c-15.2,0-29.4-4.6-41.1-12.6
			c-19.8-13.4-32.8-36.2-32.4-61.9c0.5-40.4,34.2-72.6,74.6-72.6h145.3C435.9,148.8,438.7,155,435.3,159z"/>
	</g>
	<g>
		<path class="st2" d="M1676.7,203.6v29.6h-37c0,1.8,0.1,128.3,0.1,128.3h-34.4V165h34.3v38.6H1676.7z"/>
		<path class="st2" d="M964,361.3h-33.6c0,0-66.5-154.8-67.3-156.7l37.3-0.1c0,0,46.2,111.1,47,112.7L994,204.5l37.3,0.1L964,361.3z
			"/>
		<path class="st2" d="M1354.7,165v56.8c-0.5-0.6-2.1-2.1-2.7-2.6c-10.4-8.9-22.3-14.7-35.8-17.1c-27.7-4.9-52.8,0.6-73,20.8
			c-22.4,22.6-27.9,50.7-21.2,80.8c14,62.7,82.8,75.2,122.8,48.1c3.4-2.3,6.5-4.9,9.9-7.7v16.8h34V165H1354.7z M1305,334
			c-30.1,0.1-51.1-20.9-51.3-51c-0.2-29.8,20.8-51,50.7-51.2c26.1-0.2,45.7,15.8,50.3,39.9c0.7,3.5,1.1,7.2,1.1,11
			c0,4-0.4,7.8-1.1,11.4C1350,318,1330.8,333.9,1305,334z"/>
		<path class="st2" d="M810.2,203.6v17.7c-0.8-0.7-2.1-1.7-2.7-2.2c-10.4-8.9-22.3-14.7-35.8-17.1c-27.7-4.9-52.8,0.6-73,20.8
			c-22.4,22.6-27.9,50.7-21.2,80.8c14,62.7,82.8,75.2,122.8,48.1c3.4-2.3,6.5-4.9,9.9-7.7V361h34V203.6H810.2z M760.5,333.9
			c-30.1,0.1-51.1-20.9-51.3-51c-0.2-29.8,20.8-51,50.7-51.2c26.1-0.2,45.7,15.8,50.3,39.9c0.7,3.5,1.1,7.2,1.1,11
			c0,4-0.4,7.8-1.1,11.4C805.5,317.9,786.3,333.8,760.5,333.9z"/>
		<path class="st2" d="M1543.6,203.6v17.7c-0.8-0.7-2.1-1.7-2.7-2.2c-10.4-8.9-22.3-14.7-35.8-17.1c-27.7-4.9-52.8,0.6-73,20.8
			c-22.4,22.6-27.9,50.7-21.2,80.8c14,62.7,82.8,75.2,122.8,48.1c3.4-2.3,6.5-4.9,9.9-7.7V361h34V203.6H1543.6z M1493.9,333.9
			c-30.1,0.1-51.1-20.9-51.3-51c-0.2-29.8,20.8-51,50.7-51.2c26.1-0.2,45.7,15.8,50.3,39.9c0.7,3.5,1.1,7.2,1.1,11
			c0,4-0.4,7.8-1.1,11.4C1539,317.9,1519.7,333.8,1493.9,333.9z"/>
		<path class="st2" d="M1195.7,258.6c-5.9-19.9-16.9-36.2-35.1-46.9c-17.6-10.2-36.7-12.9-56.7-10.1c-19.4,2.6-36.2,10.5-49.2,25.3
			c-18.2,20.7-22.8,45.2-18.9,71.5c3.5,23.3,14.9,42.1,35.2,54.7c16.6,10.4,35.1,13.6,54.3,11.8c8.5-0.8,16.6-2.5,24.1-5.2
			c0,0,0.1,0,0.1,0c14.3-5.2,26.6-14.2,36.5-27.5c2.6-3.5,6.3-10.2,8.5-14.3c0.5-1.1,1-2.2,1.5-3.4h-37c-1.1,1.6-2.2,3.1-3.4,4.5
			c-0.4,0.5-0.9,1-1.3,1.5c-0.3,0.3-0.5,0.6-0.8,0.8c-0.2,0.2-0.5,0.5-0.8,0.7c-0.6,0.6-1.3,1.2-2,1.8c-0.2,0.2-0.5,0.4-0.7,0.6
			c-0.3,0.3-0.7,0.6-1,0.8c-0.4,0.3-0.8,0.6-1.2,0.9c-3.3,2.4-6.8,4.3-10.6,5.8c-0.3,0.1-0.7,0.3-1,0.4c-4.5,1.6-9.3,2.6-14.5,3
			c-20.2,1.6-38.2-7.1-48.2-26.2c-2.2-4.3-3.6-8.2-5-14.5h130.7c0.1-1.6,0.2-2.9,0.2-4.2C1199.8,279.6,1198.7,269,1195.7,258.6z
			 M1070.1,268.5c1.8-16.9,17.2-35.5,41.6-37.9c26.4-2.6,49,13,53.9,37.9H1070.1z"/>
		<path class="st2" d="M1847.3,258.6c-5.9-19.9-16.9-36.2-35.1-46.9c-17.6-10.2-36.7-12.9-56.7-10.1c-19.4,2.6-36.2,10.5-49.2,25.3
			c-18.2,20.7-22.8,45.2-18.9,71.5c3.5,23.3,14.9,42.1,35.2,54.7c16.6,10.4,35.1,13.6,54.3,11.8c8.5-0.8,16.6-2.5,24.1-5.2
			c0,0,0.1,0,0.1,0c14.3-5.2,26.6-14.2,36.5-27.5c2.6-3.5,6.3-10.2,8.5-14.3c0.5-1.1,1-2.2,1.5-3.4h-37c-1.1,1.6-2.2,3.1-3.4,4.5
			c-0.4,0.5-0.9,1-1.3,1.5c-0.3,0.3-0.5,0.6-0.8,0.8c-0.2,0.2-0.5,0.5-0.8,0.7c-0.6,0.6-1.3,1.2-2,1.8c-0.2,0.2-0.5,0.4-0.7,0.6
			c-0.3,0.3-0.7,0.6-1,0.8c-0.4,0.3-0.8,0.6-1.2,0.9c-3.3,2.4-6.8,4.3-10.6,5.8c-0.3,0.1-0.7,0.3-1,0.4c-4.5,1.6-9.3,2.6-14.5,3
			c-20.2,1.6-38.2-7.1-48.2-26.2c-2.2-4.3-3.6-8.2-5-14.5H1851c0.1-1.6,0.2-2.9,0.2-4.2C1851.4,279.6,1850.3,269,1847.3,258.6z
			 M1721.7,268.5c1.8-16.9,17.2-35.5,41.6-37.9c26.4-2.6,49,13,53.9,37.9H1721.7z"/>
		<path class="st2" d="M654.6,325.6c-2.1,14.7-11.1,24.5-23.9,31c-16.9,8.5-35,9.8-53.5,7.9c-13.6-1.3-26.5-5.2-37.7-13.4
			c-12.1-8.9-19-20.8-20-35.9c-0.1-1.2,0-2.3,0-3.9H553c0,0,0.2,2.8,1.2,6.5c0,0.2,0.1,0.4,0.2,0.6c0.1,0.2,0.2,0.5,0.2,0.7
			c0.1,0.4,0.3,0.8,0.5,1.2c0.2,0.4,0.4,0.9,0.6,1.3c0.6,1.2,1.3,2.4,2.2,3.6c0.2,0.3,0.5,0.6,0.8,0.9c0.2,0.3,0.5,0.6,0.8,0.8
			c2.6,2.8,6,4.9,9.9,6.3c13.2,4.9,26.7,5.1,40,0.4c9.9-3.5,14.2-12,11.1-20.8c-1.8-5.1-5.8-8.1-10.3-10.4
			c-10.1-5.3-21.2-7.1-32.2-9.2c-12.7-2.4-25.2-5.6-36.3-12.6c-14.1-8.8-20.3-21.6-19.1-38.1c1.1-15.6,8.9-26.9,22.7-33.9
			c15.2-7.7,31.5-9,48.2-8c12.3,0.8,24.1,3.3,34.9,9.6c15.1,8.9,22.6,22.3,24.1,40h-33.8c0-1.2-0.2-2-0.4-3c-1.6-8-6.6-13.2-13.9-16
			c-12-4.5-24.3-4.7-36.4-0.4c-4.8,1.7-8.6,4.7-10.6,9.6c-3.1,7.7-0.6,15.6,7.2,19c8.5,3.7,17.4,6.4,26.4,8.5
			c14.9,3.5,29.9,6.5,43.1,14.9C649.7,293,657.3,306.9,654.6,325.6z"/>
	</g>
</g>
</svg>
